<svg xmlns="http://www.w3.org/2000/svg" xmlns:xlink="http://www.w3.org/1999/xlink" version="1.1" data-diagram-type="DESCRIPTION" style="width:927px;height:745px;" width="927px" height="745px" viewBox="0 0 927 745" zoomAndPan="magnify" preserveAspectRatio="none" contentStyleType="text/css"><?plantuml 1.2026.8?><defs/><g font-family="sans-serif" lengthAdjust="spacing"><g class="title" data-source-line="5"><text x="188.51" y="41.421" fill="#000" font-size="22" textLength="547.98" font-weight="700" font-family="'Segoe UI, Helvetica, Arial, sans-serif'">Quantum Video Chat — System Architecture</text></g><rect x="8" y="66.609" width="906" height="16.641" fill="#FFC" style="stroke:#FD8;stroke-width:3;" rx="2.5" ry="2.5"/><text x="15" y="77.25" fill="#000" font-size="10" textLength="295.005" font-family="monospace">Please use CSS style instead of skinparam padding</text><!--cluster frontend--><g class="cluster" data-qualified-name="frontend" id="ent0001" data-source-line="7"><rect x="559" y="92.25" width="203" height="134" fill="#E8F4FD" style="stroke:#ADB5BD;stroke-width:1;" rx="4" ry="4"/><text x="572.923" y="111.389" fill="#212529" font-size="12" textLength="175.154" font-weight="700" font-family="'Segoe UI, Helvetica, Arial, sans-serif'">Browser Frontend (React)</text></g><!--cluster mw--><g class="cluster" data-qualified-name="mw" id="ent0003" data-source-line="11"><rect x="460" y="258.25" width="453" height="279" fill="#ECFDF5" style="stroke:#ADB5BD;stroke-width:1;" rx="4" ry="4"/><text x="621.206" y="277.389" fill="#212529" font-size="12" textLength="130.588" font-weight="700" font-family="'Segoe UI, Helvetica, Arial, sans-serif'">Python Middleware</text></g><!--cluster backend--><g class="cluster" data-qualified-name="backend" id="ent0011" data-source-line="21"><rect x="12" y="394.25" width="408" height="324" fill="#FEF2F2" style="stroke:#ADB5BD;stroke-width:1;" rx="4" ry="4"/><text x="136.887" y="413.389" fill="#212529" font-size="12" textLength="158.227" font-weight="700" font-family="'Segoe UI, Helvetica, Arial, sans-serif'">Python Backend Server</text></g><!--cluster shared--><g class="cluster" data-qualified-name="shared" id="ent0017" data-source-line="29"><rect x="606" y="569.25" width="160" height="162" fill="#F5F0FF" style="stroke:#ADB5BD;stroke-width:1;" rx="4" ry="4"/><text x="660.594" y="588.389" fill="#212529" font-size="12" textLength="50.813" font-weight="700" font-family="'Segoe UI, Helvetica, Arial, sans-serif'">shared/</text></g><!--entity renderer--><g class="entity" data-qualified-name="frontend.renderer" id="ent0002" data-source-line="8"><rect x="584" y="136.25" width="152.264" height="73.906" fill="#FFF" style="stroke:#ADB5BD;stroke-width:1;" rx="4" ry="4"/><text x="600" y="163.389" fill="#212529" font-size="12" textLength="55.576" font-family="'Segoe UI, Helvetica, Arial, sans-serif'">Renderer</text><text x="600" y="177.357" fill="#212529" font-size="12" textLength="120.264" font-family="'Segoe UI, Helvetica, Arial, sans-serif'">Start / Join / Session</text><text x="600" y="191.326" fill="#212529" font-size="12" textLength="49.219" font-family="'Segoe UI, Helvetica, Arial, sans-serif'">Settings</text></g><!--entity client--><g class="entity" data-qualified-name="mw.client" id="ent0004" data-source-line="12"><rect x="602.5" y="310.25" width="115.449" height="59.938" fill="#FFF" style="stroke:#ADB5BD;stroke-width:1;" rx="4" ry="4"/><text x="618.5" y="337.389" fill="#212529" font-size="12" textLength="34.74" font-family="'Segoe UI, Helvetica, Arial, sans-serif'">Client</text><text x="618.5" y="351.357" fill="#212529" font-size="12" textLength="83.449" font-family="'Segoe UI, Helvetica, Arial, sans-serif'">(orchestrator)</text></g><!--entity clientapi--><g class="entity" data-qualified-name="mw.clientapi" id="ent0005" data-source-line="13"><rect x="484" y="453.25" width="85.725" height="59.938" fill="#FFF" style="stroke:#ADB5BD;stroke-width:1;" rx="4" ry="4"/><text x="500" y="480.389" fill="#212529" font-size="12" textLength="53.725" font-family="'Segoe UI, Helvetica, Arial, sans-serif'">ClientAPI</text><text x="500" y="494.357" fill="#212529" font-size="12" textLength="34.582" font-family="'Segoe UI, Helvetica, Arial, sans-serif'">:4000</text></g><!--entity socketclient--><g class="entity" data-qualified-name="mw.socketclient" id="ent0006" data-source-line="14"><rect x="605.5" y="453.25" width="108.822" height="59.938" fill="#FFF" style="stroke:#ADB5BD;stroke-width:1;" rx="4" ry="4"/><text x="621.5" y="480.389" fill="#212529" font-size="12" textLength="75.334" font-family="'Segoe UI, Helvetica, Arial, sans-serif'">SocketClient</text><text x="621.5" y="494.357" fill="#212529" font-size="12" textLength="76.822" font-family="'Segoe UI, Helvetica, Arial, sans-serif'">(WebSocket)</text></g><!--entity av--><g class="entity" data-qualified-name="mw.av" id="ent0007" data-source-line="15"><rect x="749.5" y="453.25" width="130.525" height="59.938" fill="#FFF" style="stroke:#ADB5BD;stroke-width:1;" rx="4" ry="4"/><text x="765.5" y="480.389" fill="#212529" font-size="12" textLength="98.525" font-family="'Segoe UI, Helvetica, Arial, sans-serif'">AV + Encryption</text><text x="765.5" y="494.357" fill="#212529" font-size="12" textLength="76.893" font-family="'Segoe UI, Helvetica, Arial, sans-serif'">Key Rotation</text></g><!--entity restapi--><g class="entity" data-qualified-name="backend.restapi" id="ent0012" data-source-line="22"><rect x="243" y="453.25" width="134.381" height="59.938" fill="#FFF" style="stroke:#ADB5BD;stroke-width:1;" rx="4" ry="4"/><text x="259" y="480.389" fill="#212529" font-size="12" textLength="102.381" font-family="'Segoe UI, Helvetica, Arial, sans-serif'">ServerAPI (REST)</text><text x="259" y="494.357" fill="#212529" font-size="12" textLength="34.582" font-family="'Segoe UI, Helvetica, Arial, sans-serif'">:5050</text></g><!--entity socketapi--><g class="entity" data-qualified-name="backend.socketapi" id="ent0013" data-source-line="23"><rect x="36" y="446.25" width="172.215" height="73.906" fill="#FFF" style="stroke:#ADB5BD;stroke-width:1;" rx="4" ry="4"/><text x="52" y="473.389" fill="#212529" font-size="12" textLength="140.215" font-family="'Segoe UI, Helvetica, Arial, sans-serif'">SocketAPI (WebSocket)</text><text x="52" y="487.357" fill="#212529" font-size="12" textLength="34.582" font-family="'Segoe UI, Helvetica, Arial, sans-serif'">:3000</text><text x="52" y="501.326" fill="#212529" font-size="12" textLength="81.744" font-family="'Segoe UI, Helvetica, Arial, sans-serif'">/video  /audio</text></g><!--entity usermgr--><g class="entity" data-qualified-name="backend.usermgr" id="ent0014" data-source-line="24"><rect x="160" y="634.25" width="111.951" height="59.938" fill="#FFF" style="stroke:#ADB5BD;stroke-width:1;" rx="4" ry="4"/><text x="176" y="661.389" fill="#212529" font-size="12" textLength="79.951" font-family="'Segoe UI, Helvetica, Arial, sans-serif'">UserManager</text><text x="176" y="675.357" fill="#212529" font-size="12" textLength="36.715" font-family="'Segoe UI, Helvetica, Arial, sans-serif'">User[]</text></g><!--entity sharedlib--><g class="entity" data-qualified-name="shared.sharedlib" id="ent0018" data-source-line="30"><rect x="622" y="613.25" width="127.719" height="101.844" fill="#FFF" style="stroke:#ADB5BD;stroke-width:1;" rx="4" ry="4"/><text x="638" y="640.389" fill="#212529" font-size="12" textLength="64.225" font-family="'Segoe UI, Helvetica, Arial, sans-serif'">encryption</text><text x="638" y="654.357" fill="#212529" font-size="12" textLength="53.209" font-family="'Segoe UI, Helvetica, Arial, sans-serif'">endpoint</text><text x="638" y="668.326" fill="#212529" font-size="12" textLength="36.721" font-family="'Segoe UI, Helvetica, Arial, sans-serif'">config</text><text x="638" y="682.295" fill="#212529" font-size="12" textLength="30.398" font-family="'Segoe UI, Helvetica, Arial, sans-serif'">state</text><text x="638" y="696.264" fill="#212529" font-size="12" textLength="95.719" font-family="'Segoe UI, Helvetica, Arial, sans-serif'">AV namespaces</text></g><!--link client to clientapi--><g class="link" data-entity-1="ent0004" data-entity-2="ent0005" id="lnk8" data-source-line="16" data-link-type="dependency"><path d="M602.44,340.25 C566.49,340.25 527,340.25 527,340.25 C527,340.25 527,405.95 527,447.92" style="stroke:#495057;stroke-width:1;" fill="none" id="client-to-clientapi"/><polygon points="527,452.92,531,443.92,527,447.92,523,443.92,527,452.92" fill="#495057" style="stroke:#495057;stroke-width:1;stroke-linejoin:miter;stroke-miterlimit:10;"/></g><!--link client to socketclient--><g class="link" data-entity-1="ent0004" data-entity-2="ent0006" id="lnk9" data-source-line="17" data-link-type="dependency"><path d="M660,370.58 C660,394.84 660,423.71 660,447.97" style="stroke:#495057;stroke-width:1;" fill="none" id="client-to-socketclient"/><polygon points="660,452.97,664,443.97,660,447.97,656,443.97,660,452.97" fill="#495057" style="stroke:#495057;stroke-width:1;stroke-linejoin:miter;stroke-miterlimit:10;"/></g><!--link client to av--><g class="link" data-entity-1="ent0004" data-entity-2="ent0007" id="lnk10" data-source-line="18" data-link-type="dependency"><path d="M717.72,356.25 C761.78,356.25 815,356.25 815,356.25 C815,356.25 815,410.6 815,448.15" style="stroke:#495057;stroke-width:1;" fill="none" id="client-to-av"/><polygon points="815,453.15,819,444.15,815,448.15,811,444.15,815,453.15" fill="#495057" style="stroke:#495057;stroke-width:1;stroke-linejoin:miter;stroke-miterlimit:10;"/></g><!--link restapi to usermgr--><g class="link" data-entity-1="ent0012" data-entity-2="ent0014" id="lnk15" data-source-line="25" data-link-type="dependency"><path d="M257.5,513.55 C257.5,547.06 257.5,595.73 257.5,629.16" style="stroke:#495057;stroke-width:1;" fill="none" id="restapi-to-usermgr"/><polygon points="257.5,634.16,261.5,625.16,257.5,629.16,253.5,625.16,257.5,634.16" fill="#495057" style="stroke:#495057;stroke-width:1;stroke-linejoin:miter;stroke-miterlimit:10;"/></g><!--link socketapi to usermgr--><g class="link" data-entity-1="ent0013" data-entity-2="ent0014" id="lnk16" data-source-line="26" data-link-type="dependency"><path d="M184,520.31 C184,553.93 184,597.86 184,629.13" style="stroke:#495057;stroke-width:1;" fill="none" id="socketapi-to-usermgr"/><polygon points="184,634.13,188,625.13,184,629.13,180,625.13,184,634.13" fill="#495057" style="stroke:#495057;stroke-width:1;stroke-linejoin:miter;stroke-miterlimit:10;"/></g><!--link renderer to client--><g class="link" data-entity-1="ent0002" data-entity-2="ent0004" id="lnk19" data-source-line="33" data-link-type="dependency"><path d="M660,210.31 C660,240.29 660,276.99 660,304.98" style="stroke:#495057;stroke-width:1;" fill="none" id="renderer-to-client"/><polygon points="660,309.98,664,300.98,660,304.98,656,300.98,660,309.98" fill="#495057" style="stroke:#495057;stroke-width:1;stroke-linejoin:miter;stroke-miterlimit:10;"/><text x="596" y="251.289" fill="#000" font-size="12" textLength="57.393" font-family="'Segoe UI, Helvetica, Arial, sans-serif'">Socket.IO</text></g><!--link clientapi to restapi--><g class="link" data-entity-1="ent0005" data-entity-2="ent0012" id="lnk20" data-source-line="34" data-link-type="dependency"><path d="M483.87,499.25 C453.46,499.25 417.14,499.25 382.4,499.25" style="stroke:#495057;stroke-width:1;" fill="none" id="clientapi-to-restapi"/><polygon points="377.4,499.25,386.4,503.25,382.4,499.25,386.4,495.25,377.4,499.25" fill="#495057" style="stroke:#495057;stroke-width:1;stroke-linejoin:miter;stroke-miterlimit:10;"/><text x="437.64" y="490.389" fill="#000" font-size="12" textLength="30.867" font-family="'Segoe UI, Helvetica, Arial, sans-serif'">REST</text></g><!--link socketclient to socketapi--><g class="link" data-entity-1="ent0006" data-entity-2="ent0013" id="lnk21" data-source-line="35" data-link-type="dependency"><path d="M613.75,518.35 C613.75,518.35 354.25,517.25 213.22,517.25" style="stroke:#495057;stroke-width:1;" fill="none" id="socketclient-socketapi"/><polygon points="613.75,513.35,609.75,522.35,613.75,518.35,617.75,522.35,613.75,513.35" fill="#495057" style="stroke:#495057;stroke-width:1;stroke-linejoin:miter;stroke-miterlimit:10;"/><polygon points="208.22,517.25,217.22,521.25,213.22,517.25,217.22,513.25,208.22,517.25" fill="#495057" style="stroke:#495057;stroke-width:1;stroke-linejoin:miter;stroke-miterlimit:10;"/><text x="323.289" y="535.389" fill="#000" font-size="12" textLength="75.82" font-weight="700" font-family="'Segoe UI, Helvetica, Arial, sans-serif'">WebSocket</text><text x="315.93" y="549.357" fill="#000" font-size="12" textLength="90.539" font-family="'Segoe UI, Helvetica, Arial, sans-serif'">(encrypted AV)</text></g><!--link mw to sharedlib--><g class="link" data-entity-1="ent0003" data-entity-2="ent0018" id="lnk22" data-source-line="36" data-link-type="dependency"><path d="M742.75,537.343 C742.75,539.196 742.75,541.043 742.75,542.883 C742.75,546.562 742.75,550.211 742.75,553.822 C742.75,561.044 742.75,568.113 742.75,574.964 C742.75,588.665 742.75,596.49 742.75,607.91" style="stroke:#495057;stroke-width:1;stroke-dasharray:7,7;" fill="none" id="mw-to-sharedlib"/><polygon points="742.75,612.91,746.75,603.91,742.75,607.91,738.75,603.91,742.75,612.91" fill="#495057" style="stroke:#495057;stroke-width:1;stroke-linejoin:miter;stroke-miterlimit:10;"/></g><!--link backend to sharedlib--><g class="link" data-entity-1="ent0011" data-entity-2="ent0018" id="lnk23" data-source-line="37" data-link-type="dependency"><path d="M420.341,624.25 C420.479,624.25 420.618,624.25 420.758,624.25 C421.881,624.25 423.102,624.25 424.417,624.25 C427.048,624.25 430.051,624.25 433.386,624.25 C446.723,624.25 465.351,624.25 486.509,624.25 C528.825,624.25 576.265,624.25 616.76,624.25" style="stroke:#495057;stroke-width:1;stroke-dasharray:7,7;" fill="none" id="backend-to-sharedlib"/><polygon points="621.76,624.25,612.76,620.25,616.76,624.25,612.76,628.25,621.76,624.25" fill="#495057" style="stroke:#495057;stroke-width:1;stroke-linejoin:miter;stroke-miterlimit:10;"/></g><?plantuml-src TLDBZjD04Dtx54MKnIGe7mbc4w6Hai6WWHa8DWaBpA9ZrpYjiQkjxdOY2o5n24x8IQYq4u_pmPlkhdhrU_NyGbASbGc2iLM6mwBCCyyyIIg45Zd4AYyK8TbmvmMDiHMKPjY2P9BGLWM2qdQjFCzAoyWlfI1Rvh2K2IguNGiBVt__WR0o5dEOwdWjBIShDNfUanKwCwss1ZMyqueiKW9N0OhOzZeW33mUZDtP_SA7dnxmrtG8dO1zg55755gXBOpWWvB4HuZ6I4LiHsibfSQbqtkuz-keXNd5On0yo2J9S2iqEd2-XUxxmFS_dPUzpIIV4LqfdWgDrS8gNNSSEzVbWEdyBgB9w_5ut8AAGfwYGnK_eMsAVCDLRQah67U_N6UwX9VWKwohmhhnFs85WR9YztBHObF7k70O96fBWvlJLewTvmMF_Ppo8fypmN6ykn3r1hMhljgRke7_zfpM6iWiiGRyy6kFoReUNu_tgpF_fyg5FDF4SQ-Ov8X66wT568aoaQh5teLC2nRXWo2HxjIqUtp_uG9AlkQfTl1z4ytaRL-J-CnxJ8vPiy2IKTsCkqDtlWZcznVaZQrDCcq5Qvi54Ijwb6b4t8l5Y7Zd978qXOZHjD9cSbMNhZL_ickOGCtMyEwprwmV1bgcQykemwWJsAt2Qsi0tZIevw4dqEyt6-ZtMRRxvdc-wRBdyTyq7DwqMZj8uTZw3m00?></g></svg>