<svg xmlns="http://www.w3.org/2000/svg" xmlns:xlink="http://www.w3.org/1999/xlink" version="1.1" data-diagram-type="STATE" style="width:1726px;height:659px;" width="1726px" height="659px" viewBox="0 0 1726 659" zoomAndPan="magnify" preserveAspectRatio="none" contentStyleType="text/css"><?plantuml 1.2026.8?><defs/><g font-family="sans-serif" lengthAdjust="spacing"><g class="title" data-source-line="3"><text x="766.895" y="41.421" fill="#000" font-size="22" textLength="190.964" font-weight="700" font-family="'Segoe UI, Helvetica, Arial, sans-serif'">State Machines</text></g><rect x="8" y="66.609" width="1705.754" height="16.641" fill="#FFC" style="stroke:#FD8;stroke-width:3;" rx="2.5" ry="2.5"/><text x="15" y="77.25" fill="#000" font-size="10" textLength="295.005" font-family="monospace">Please use CSS style instead of skinparam padding</text><g class="entity" data-qualified-name="user_pkg" id="ent0001" data-source-line="5"><path d="M16,206.25 L307.662,206.25 A4,4 0 0 1 311.662,210.25 L311.662,242.219 L12,242.219 L12,210.25 A4,4 0 0 1 16,206.25" fill="#F8F9FA"/><path d="M12,242.219 L311.662,242.219 L311.662,526.156 A4,4 0 0 1 307.662,530.156 L16,530.156 A4,4 0 0 1 12,526.156 L12,242.219" fill="#F8F9FA"/><rect x="12" y="206.25" width="299.662" height="323.906" fill="none" style="stroke:#ADB5BD;stroke-width:1;" rx="4" ry="4"/><line x1="12" y1="242.219" x2="311.662" y2="242.219" style="stroke:#ADB5BD;stroke-width:1;"/><text x="108.115" y="228.389" fill="#212529" font-size="12" textLength="107.432" font-family="'Segoe UI, Helvetica, Arial, sans-serif'">User (server-side)</text><g class="entity" data-qualified-name="user_pkg.u_idle" id="ent0002" data-source-line="6"><rect x="68.99" y="310.219" width="59.047" height="57.969" fill="#F8F9FA" style="stroke:#ADB5BD;stroke-width:1;" rx="4" ry="4"/><line x1="68.99" y1="346.188" x2="128.037" y2="346.188" style="stroke:#ADB5BD;stroke-width:1;"/><text x="84.99" y="332.357" fill="#212529" font-size="12" textLength="27.047" font-family="'Segoe UI, Helvetica, Arial, sans-serif'">IDLE</text></g><g class="entity" data-qualified-name="user_pkg.u_conn" id="ent0003" data-source-line="7"><rect x="28.49" y="445.219" width="140.234" height="71.938" fill="#F8F9FA" style="stroke:#ADB5BD;stroke-width:1;" rx="4" ry="4"/><line x1="28.49" y1="495.156" x2="168.724" y2="495.156" style="stroke:#ADB5BD;stroke-width:1;"/><text x="44.49" y="467.357" fill="#212529" font-size="12" textLength="75.891" font-family="'Segoe UI, Helvetica, Arial, sans-serif'">CONNECTED</text><text x="44.49" y="481.326" fill="#212529" font-size="12" textLength="108.234" font-family="'Segoe UI, Helvetica, Arial, sans-serif'">peer = &lt;user_id></text></g><g class="start_entity" data-qualified-name="user_pkg..start.user_pkg" id="ent0019" data-source-line="9"><ellipse cx="98.49" cy="263.219" rx="10" ry="10" fill="#FFF" style="stroke:#000;stroke-width:1;"/></g><!--link *start*user_pkg to u_idle--><g class="link" data-entity-1="ent0019" data-entity-2="ent0002" id="lnk20" data-source-line="9" data-link-type="dependency"><path d="M98.49,273.289 C98.49,282.399 98.49,291.909 98.49,304.899" style="stroke:#495057;stroke-width:1;" fill="none" id="*start*user_pkg-to-u_idle"/><polygon points="98.49,309.899,102.49,300.899,98.49,304.899,94.49,300.899,98.49,309.899" fill="#495057" style="stroke:#495057;stroke-width:1;stroke-linejoin:miter;stroke-miterlimit:10;"/></g><!--link u_idle to u_conn--><g class="link" data-entity-1="ent0002" data-entity-2="ent0003" id="lnk21" data-source-line="10" data-link-type="dependency"><path d="M68.88,352.499 C54.84,360.009 39.44,371.109 31.49,386.219 C23,402.339 23.55,410.819 31.49,427.219 C34.65,433.759 35.638,436.093 40.698,441.483" style="stroke:#495057;stroke-width:1;" fill="none" id="u_idle-to-u_conn"/><polygon points="44.12,445.129,40.876,435.829,40.698,441.483,35.044,441.305,44.12,445.129" fill="#495057" style="stroke:#495057;stroke-width:1;stroke-linejoin:miter;stroke-miterlimit:10;"/><text x="38.49" y="404.357" fill="#000" font-size="12" textLength="99.434" font-family="'Segoe UI, Helvetica, Arial, sans-serif'">peer_connection</text><text x="60.58" y="418.326" fill="#000" font-size="12" textLength="55.254" font-family="'Segoe UI, Helvetica, Arial, sans-serif'">accepted</text></g><!--link u_conn to u_idle--><g class="link" data-entity-1="ent0003" data-entity-2="ent0002" id="lnk22" data-source-line="11" data-link-type="dependency"><path d="M134.7,445.119 C138.68,439.519 142.14,433.499 144.49,427.219 C150.86,410.149 151.46,403.059 144.49,386.219 C140.94,377.659 138.45,373.439 131.94,366.799" style="stroke:#495057;stroke-width:1;" fill="none" id="u_conn-to-u_idle"/><polygon points="128.44,363.229,131.884,372.456,131.94,366.799,137.597,366.855,128.44,363.229" fill="#495057" style="stroke:#495057;stroke-width:1;stroke-linejoin:miter;stroke-miterlimit:10;"/><text x="169.398" y="404.357" fill="#000" font-size="12" textLength="98.355" font-family="'Segoe UI, Helvetica, Arial, sans-serif'">disconnect_peer</text><text x="156.49" y="418.326" fill="#000" font-size="12" textLength="124.172" font-family="'Segoe UI, Helvetica, Arial, sans-serif'">or socket disconnect</text></g></g><g class="entity" data-qualified-name="client_pkg" id="ent0004" data-source-line="14"><path d="M351,92.25 L778.627,92.25 A4,4 0 0 1 782.627,96.25 L782.627,128.219 L347,128.219 L347,96.25 A4,4 0 0 1 351,92.25" fill="#F8F9FA"/><path d="M347,128.219 L782.627,128.219 L782.627,640.188 A4,4 0 0 1 778.627,644.188 L351,644.188 A4,4 0 0 1 347,640.188 L347,128.219" fill="#F8F9FA"/><rect x="347" y="92.25" width="435.627" height="551.938" fill="none" style="stroke:#ADB5BD;stroke-width:1;" rx="4" ry="4"/><line x1="347" y1="128.219" x2="782.627" y2="128.219" style="stroke:#ADB5BD;stroke-width:1;"/><text x="505.625" y="114.389" fill="#212529" font-size="12" textLength="118.377" font-family="'Segoe UI, Helvetica, Arial, sans-serif'">Client (middleware)</text><g class="entity" data-qualified-name="client_pkg.c_new" id="ent0005" data-source-line="15"><rect x="440.92" y="196.219" width="60.424" height="57.969" fill="#F8F9FA" style="stroke:#ADB5BD;stroke-width:1;" rx="4" ry="4"/><line x1="440.92" y1="232.188" x2="501.344" y2="232.188" style="stroke:#ADB5BD;stroke-width:1;"/><text x="456.92" y="218.357" fill="#212529" font-size="12" textLength="28.424" font-family="'Segoe UI, Helvetica, Arial, sans-serif'">NEW</text></g><g class="entity" data-qualified-name="client_pkg.c_init" id="ent0006" data-source-line="16"><rect x="443.42" y="317.219" width="55.385" height="57.969" fill="#F8F9FA" style="stroke:#ADB5BD;stroke-width:1;" rx="4" ry="4"/><line x1="443.42" y1="353.188" x2="498.805" y2="353.188" style="stroke:#ADB5BD;stroke-width:1;"/><text x="459.42" y="339.357" fill="#212529" font-size="12" textLength="23.385" font-family="'Segoe UI, Helvetica, Arial, sans-serif'">INIT</text></g><g class="entity" data-qualified-name="client_pkg.c_live" id="ent0007" data-source-line="17"><rect x="441.92" y="438.219" width="58.016" height="57.969" fill="#F8F9FA" style="stroke:#ADB5BD;stroke-width:1;" rx="4" ry="4"/><line x1="441.92" y1="474.188" x2="499.936" y2="474.188" style="stroke:#ADB5BD;stroke-width:1;"/><text x="457.92" y="460.357" fill="#212529" font-size="12" textLength="26.016" font-family="'Segoe UI, Helvetica, Arial, sans-serif'">LIVE</text></g><g class="entity" data-qualified-name="client_pkg.c_conn" id="ent0008" data-source-line="18"><rect x="416.92" y="573.219" width="107.891" height="57.969" fill="#F8F9FA" style="stroke:#ADB5BD;stroke-width:1;" rx="4" ry="4"/><line x1="416.92" y1="609.188" x2="524.811" y2="609.188" style="stroke:#ADB5BD;stroke-width:1;"/><text x="432.92" y="595.357" fill="#212529" font-size="12" textLength="75.891" font-family="'Segoe UI, Helvetica, Arial, sans-serif'">CONNECTED</text></g><g class="start_entity" data-qualified-name="client_pkg..start.client_pkg" id="ent0023" data-source-line="20"><ellipse cx="470.92" cy="149.219" rx="10" ry="10" fill="#FFF" style="stroke:#000;stroke-width:1;"/></g><!--link *start*client_pkg to c_new--><g class="link" data-entity-1="ent0023" data-entity-2="ent0005" id="lnk24" data-source-line="20" data-link-type="dependency"><path d="M470.92,159.289 C470.92,168.399 470.92,177.909 470.92,190.899" style="stroke:#495057;stroke-width:1;" fill="none" id="*start*client_pkg-to-c_new"/><polygon points="470.92,195.899,474.92,186.899,470.92,190.899,466.92,186.899,470.92,195.899" fill="#495057" style="stroke:#495057;stroke-width:1;stroke-linejoin:miter;stroke-miterlimit:10;"/></g><!--link c_new to c_init--><g class="link" data-entity-1="ent0005" data-entity-2="ent0006" id="lnk25" data-source-line="21" data-link-type="dependency"><path d="M470.92,254.419 C470.92,273.249 470.92,292.929 470.92,311.809" style="stroke:#495057;stroke-width:1;" fill="none" id="c_new-to-c_init"/><polygon points="470.92,316.809,474.92,307.809,470.92,311.809,466.92,307.809,470.92,316.809" fill="#495057" style="stroke:#495057;stroke-width:1;stroke-linejoin:miter;stroke-miterlimit:10;"/><text x="477.92" y="290.357" fill="#000" font-size="12" textLength="85.881" font-family="'Segoe UI, Helvetica, Arial, sans-serif'">ClientAPI.init()</text></g><!--link c_init to c_live--><g class="link" data-entity-1="ent0006" data-entity-2="ent0007" id="lnk26" data-source-line="22" data-link-type="dependency"><path d="M470.92,375.419 C470.92,394.249 470.92,413.929 470.92,432.809" style="stroke:#495057;stroke-width:1;" fill="none" id="c_init-to-c_live"/><polygon points="470.92,437.809,474.92,428.809,470.92,432.809,466.92,428.809,470.92,437.809" fill="#495057" style="stroke:#495057;stroke-width:1;stroke-linejoin:miter;stroke-miterlimit:10;"/><text x="477.92" y="411.357" fill="#000" font-size="12" textLength="114.861" font-family="'Segoe UI, Helvetica, Arial, sans-serif'">connect() to server</text></g><!--link c_live to c_conn--><g class="link" data-entity-1="ent0007" data-entity-2="ent0008" id="lnk27" data-source-line="23" data-link-type="dependency"><path d="M441.75,472.459 C417.39,477.709 384.12,489.249 367.92,514.219 C358,529.509 358,539.929 367.92,555.219 C379,572.309 393.38,581.393 412.12,588.193" style="stroke:#495057;stroke-width:1;" fill="none" id="c_live-to-c_conn"/><polygon points="416.82,589.899,409.724,583.069,412.12,588.193,406.995,590.589,416.82,589.899" fill="#495057" style="stroke:#495057;stroke-width:1;stroke-linejoin:miter;stroke-miterlimit:10;"/><text x="406.531" y="532.357" fill="#000" font-size="12" textLength="108.563" font-family="'Segoe UI, Helvetica, Arial, sans-serif'">connect_to_peer()</text><text x="374.92" y="546.326" fill="#000" font-size="12" textLength="171.785" font-family="'Segoe UI, Helvetica, Arial, sans-serif'">or handle_peer_connection()</text></g><!--link c_conn to c_live--><g class="link" data-entity-1="ent0008" data-entity-2="ent0007" id="lnk28" data-source-line="24" data-link-type="dependency"><path d="M524.96,581.619 C536.1,574.989 546.4,566.349 552.92,555.219 C562.13,539.499 562.13,529.939 552.92,514.219 C541.62,494.919 523.626,484.825 504.966,478.005" style="stroke:#495057;stroke-width:1;" fill="none" id="c_conn-to-c_live"/><polygon points="500.27,476.289,507.35,483.135,504.966,478.005,510.096,475.621,500.27,476.289" fill="#495057" style="stroke:#495057;stroke-width:1;stroke-linejoin:miter;stroke-miterlimit:10;"/><text x="587.819" y="532.357" fill="#000" font-size="12" textLength="141.908" font-family="'Segoe UI, Helvetica, Arial, sans-serif'">disconnect_from_peer()</text><text x="565.92" y="546.326" fill="#000" font-size="12" textLength="185.707" font-family="'Segoe UI, Helvetica, Arial, sans-serif'">or handle_peer_disconnected()</text></g></g><g class="entity" data-qualified-name="fe_server" id="ent0009" data-source-line="27"><path d="M822.5,220.25 L1119.512,220.25 A4,4 0 0 1 1123.512,224.25 L1123.512,256.219 L818.5,256.219 L818.5,224.25 A4,4 0 0 1 822.5,220.25" fill="#F8F9FA"/><path d="M818.5,256.219 L1123.512,256.219 L1123.512,512.188 A4,4 0 0 1 1119.512,516.188 L822.5,516.188 A4,4 0 0 1 818.5,512.188 L818.5,256.219" fill="#F8F9FA"/><rect x="818.5" y="220.25" width="305.012" height="295.938" fill="none" style="stroke:#ADB5BD;stroke-width:1;" rx="4" ry="4"/><line x1="818.5" y1="256.219" x2="1123.512" y2="256.219" style="stroke:#ADB5BD;stroke-width:1;"/><text x="893.442" y="242.389" fill="#212529" font-size="12" textLength="155.127" font-family="'Segoe UI, Helvetica, Arial, sans-serif'">Frontend — Server Status</text><g class="entity" data-qualified-name="fe_server.s_conn" id="ent0010" data-source-line="28"><rect x="900" y="324.219" width="98.393" height="57.969" fill="#F8F9FA" style="stroke:#ADB5BD;stroke-width:1;" rx="4" ry="4"/><line x1="900" y1="360.188" x2="998.393" y2="360.188" style="stroke:#ADB5BD;stroke-width:1;"/><text x="916" y="346.357" fill="#212529" font-size="12" textLength="66.393" font-family="'Segoe UI, Helvetica, Arial, sans-serif'">connecting</text></g><g class="entity" data-qualified-name="fe_server.s_ok" id="ent0011" data-source-line="29"><rect x="830.5" y="445.219" width="94.836" height="57.969" fill="#F8F9FA" style="stroke:#ADB5BD;stroke-width:1;" rx="4" ry="4"/><line x1="830.5" y1="481.188" x2="925.336" y2="481.188" style="stroke:#ADB5BD;stroke-width:1;"/><text x="846.5" y="467.357" fill="#212529" font-size="12" textLength="62.836" font-family="'Segoe UI, Helvetica, Arial, sans-serif'">connected</text></g><g class="entity" data-qualified-name="fe_server.s_err" id="ent0012" data-source-line="30"><rect x="990" y="445.219" width="61.525" height="57.969" fill="#F8F9FA" style="stroke:#ADB5BD;stroke-width:1;" rx="4" ry="4"/><line x1="990" y1="481.188" x2="1051.525" y2="481.188" style="stroke:#ADB5BD;stroke-width:1;"/><text x="1006" y="467.357" fill="#212529" font-size="12" textLength="29.525" font-family="'Segoe UI, Helvetica, Arial, sans-serif'">error</text></g><g class="start_entity" data-qualified-name="fe_server..start.fe_server" id="ent0029" data-source-line="32"><ellipse cx="949" cy="277.219" rx="10" ry="10" fill="#FFF" style="stroke:#000;stroke-width:1;"/></g><!--link *start*fe_server to s_conn--><g class="link" data-entity-1="ent0029" data-entity-2="ent0010" id="lnk30" data-source-line="32" data-link-type="dependency"><path d="M949,287.289 C949,296.399 949,305.909 949,318.899" style="stroke:#495057;stroke-width:1;" fill="none" id="*start*fe_server-to-s_conn"/><polygon points="949,323.899,953,314.899,949,318.899,945,314.899,949,323.899" fill="#495057" style="stroke:#495057;stroke-width:1;stroke-linejoin:miter;stroke-miterlimit:10;"/></g><!--link s_conn to s_ok--><g class="link" data-entity-1="ent0010" data-entity-2="ent0011" id="lnk31" data-source-line="33" data-link-type="dependency"><path d="M899.94,377.379 C891.56,383.599 883.96,391.169 879,400.219 C871.63,413.669 870.514,425.732 871.904,439.972" style="stroke:#495057;stroke-width:1;" fill="none" id="s_conn-to-s_ok"/><polygon points="872.39,444.949,875.497,435.603,871.904,439.972,867.535,436.38,872.39,444.949" fill="#495057" style="stroke:#495057;stroke-width:1;stroke-linejoin:miter;stroke-miterlimit:10;"/><text x="886" y="418.357" fill="#000" font-size="12" textLength="106.822" font-family="'Segoe UI, Helvetica, Arial, sans-serif'">server_connected</text></g><!--link s_conn to s_err--><g class="link" data-entity-1="ent0010" data-entity-2="ent0012" id="lnk32" data-source-line="34" data-link-type="dependency"><path d="M984.42,382.239 C989.86,387.749 994.99,393.819 999,400.219 C1007.51,413.789 1011.759,425.968 1015.059,440.178" style="stroke:#495057;stroke-width:1;" fill="none" id="s_conn-to-s_err"/><polygon points="1016.19,445.049,1018.05,435.377,1015.059,440.178,1010.258,437.187,1016.19,445.049" fill="#495057" style="stroke:#495057;stroke-width:1;stroke-linejoin:miter;stroke-miterlimit:10;"/><text x="1019" y="418.357" fill="#000" font-size="12" textLength="73.512" font-family="'Segoe UI, Helvetica, Arial, sans-serif'">server_error</text></g></g><g class="entity" data-qualified-name="fe_peer" id="ent0013" data-source-line="37"><path d="M1162.5,99.25 L1707.754,99.25 A4,4 0 0 1 1711.754,103.25 L1711.754,135.219 L1158.5,135.219 L1158.5,103.25 A4,4 0 0 1 1162.5,99.25" fill="#F8F9FA"/><path d="M1158.5,135.219 L1711.754,135.219 L1711.754,633.188 A4,4 0 0 1 1707.754,637.188 L1162.5,637.188 A4,4 0 0 1 1158.5,633.188 L1158.5,135.219" fill="#F8F9FA"/><rect x="1158.5" y="99.25" width="553.254" height="537.938" fill="none" style="stroke:#ADB5BD;stroke-width:1;" rx="4" ry="4"/><line x1="1158.5" y1="135.219" x2="1711.754" y2="135.219" style="stroke:#ADB5BD;stroke-width:1;"/><text x="1363.771" y="121.389" fill="#212529" font-size="12" textLength="142.711" font-family="'Segoe UI, Helvetica, Arial, sans-serif'">Frontend — Peer Status</text><g class="entity" data-qualified-name="fe_peer.p_idle" id="ent0014" data-source-line="38"><rect x="1321" y="203.219" width="53.668" height="57.969" fill="#F8F9FA" style="stroke:#ADB5BD;stroke-width:1;" rx="4" ry="4"/><line x1="1321" y1="239.188" x2="1374.668" y2="239.188" style="stroke:#ADB5BD;stroke-width:1;"/><text x="1337" y="225.357" fill="#212529" font-size="12" textLength="21.668" font-family="'Segoe UI, Helvetica, Arial, sans-serif'">idle</text></g><g class="entity" data-qualified-name="fe_peer.p_out" id="ent0015" data-source-line="39"><rect x="1170.5" y="324.219" width="85.168" height="57.969" fill="#F8F9FA" style="stroke:#ADB5BD;stroke-width:1;" rx="4" ry="4"/><line x1="1170.5" y1="360.188" x2="1255.668" y2="360.188" style="stroke:#ADB5BD;stroke-width:1;"/><text x="1186.5" y="346.357" fill="#212529" font-size="12" textLength="53.168" font-family="'Segoe UI, Helvetica, Arial, sans-serif'">outgoing</text></g><g class="entity" data-qualified-name="fe_peer.p_in" id="ent0016" data-source-line="40"><rect x="1304.5" y="324.219" width="87.125" height="57.969" fill="#F8F9FA" style="stroke:#ADB5BD;stroke-width:1;" rx="4" ry="4"/><line x1="1304.5" y1="360.188" x2="1391.625" y2="360.188" style="stroke:#ADB5BD;stroke-width:1;"/><text x="1320.5" y="346.357" fill="#212529" font-size="12" textLength="55.125" font-family="'Segoe UI, Helvetica, Arial, sans-serif'">incoming</text></g><g class="entity" data-qualified-name="fe_peer.p_conn" id="ent0017" data-source-line="41"><rect x="1300.5" y="445.219" width="94.836" height="57.969" fill="#F8F9FA" style="stroke:#ADB5BD;stroke-width:1;" rx="4" ry="4"/><line x1="1300.5" y1="481.188" x2="1395.336" y2="481.188" style="stroke:#ADB5BD;stroke-width:1;"/><text x="1316.5" y="467.357" fill="#212529" font-size="12" textLength="62.836" font-family="'Segoe UI, Helvetica, Arial, sans-serif'">connected</text></g><g class="entity" data-qualified-name="fe_peer.p_disc" id="ent0018" data-source-line="42"><rect x="1384" y="566.219" width="112.039" height="57.969" fill="#F8F9FA" style="stroke:#ADB5BD;stroke-width:1;" rx="4" ry="4"/><line x1="1384" y1="602.188" x2="1496.039" y2="602.188" style="stroke:#ADB5BD;stroke-width:1;"/><text x="1400" y="588.357" fill="#212529" font-size="12" textLength="80.039" font-family="'Segoe UI, Helvetica, Arial, sans-serif'">disconnected</text></g><g class="start_entity" data-qualified-name="fe_peer..start.fe_peer" id="ent0033" data-source-line="44"><ellipse cx="1348" cy="156.219" rx="10" ry="10" fill="#FFF" style="stroke:#000;stroke-width:1;"/></g><!--link *start*fe_peer to p_idle--><g class="link" data-entity-1="ent0033" data-entity-2="ent0014" id="lnk34" data-source-line="44" data-link-type="dependency"><path d="M1348,166.289 C1348,175.399 1348,184.909 1348,197.899" style="stroke:#495057;stroke-width:1;" fill="none" id="*start*fe_peer-to-p_idle"/><polygon points="1348,202.899,1352,193.899,1348,197.899,1344,193.899,1348,202.899" fill="#495057" style="stroke:#495057;stroke-width:1;stroke-linejoin:miter;stroke-miterlimit:10;"/></g><!--link p_idle to p_out--><g class="link" data-entity-1="ent0014" data-entity-2="ent0015" id="lnk35" data-source-line="45" data-link-type="dependency"><path d="M1320.68,236.689 C1293.95,241.539 1254,252.939 1231,279.219 C1220.25,291.499 1216.323,304.226 1214.483,319.116" style="stroke:#495057;stroke-width:1;" fill="none" id="p_idle-to-p_out"/><polygon points="1213.87,324.079,1218.944,315.637,1214.483,319.116,1211.004,314.656,1213.87,324.079" fill="#495057" style="stroke:#495057;stroke-width:1;stroke-linejoin:miter;stroke-miterlimit:10;"/><text x="1238" y="297.357" fill="#000" font-size="12" textLength="99.199" font-family="'Segoe UI, Helvetica, Arial, sans-serif'">connect_to_peer</text></g><!--link p_idle to p_in--><g class="link" data-entity-1="ent0014" data-entity-2="ent0016" id="lnk36" data-source-line="46" data-link-type="dependency"><path d="M1348,261.419 C1348,280.249 1348,299.929 1348,318.809" style="stroke:#495057;stroke-width:1;" fill="none" id="p_idle-to-p_in"/><polygon points="1348,323.809,1352,314.809,1348,318.809,1344,314.809,1348,323.809" fill="#495057" style="stroke:#495057;stroke-width:1;stroke-linejoin:miter;stroke-miterlimit:10;"/><text x="1355" y="297.357" fill="#000" font-size="12" textLength="154.98" font-family="'Segoe UI, Helvetica, Arial, sans-serif'">peer_connection received</text></g><!--link p_out to p_conn--><g class="link" data-entity-1="ent0015" data-entity-2="ent0017" id="lnk37" data-source-line="47" data-link-type="dependency"><path d="M1215.2,382.389 C1217.7,397.289 1222.96,414.979 1234,427.219 C1251.22,446.319 1272.685,456.245 1295.665,462.865" style="stroke:#495057;stroke-width:1;" fill="none" id="p_out-to-p_conn"/><polygon points="1300.47,464.249,1292.929,457.914,1295.665,462.865,1290.714,465.601,1300.47,464.249" fill="#495057" style="stroke:#495057;stroke-width:1;stroke-linejoin:miter;stroke-miterlimit:10;"/><text x="1241" y="418.357" fill="#000" font-size="12" textLength="96.152" font-family="'Segoe UI, Helvetica, Arial, sans-serif'">peer_connected</text></g><!--link p_in to p_conn--><g class="link" data-entity-1="ent0016" data-entity-2="ent0017" id="lnk38" data-source-line="48" data-link-type="dependency"><path d="M1348,382.419 C1348,401.249 1348,420.929 1348,439.809" style="stroke:#495057;stroke-width:1;" fill="none" id="p_in-to-p_conn"/><polygon points="1348,444.809,1352,435.809,1348,439.809,1344,435.809,1348,444.809" fill="#495057" style="stroke:#495057;stroke-width:1;stroke-linejoin:miter;stroke-miterlimit:10;"/><text x="1355" y="418.357" fill="#000" font-size="12" textLength="96.152" font-family="'Segoe UI, Helvetica, Arial, sans-serif'">peer_connected</text></g><!--link p_conn to p_disc--><g class="link" data-entity-1="ent0017" data-entity-2="ent0018" id="lnk39" data-source-line="49" data-link-type="dependency"><path d="M1361.69,503.539 C1369.13,517.619 1379.04,534.519 1390,548.219 C1394.94,554.389 1397.113,557.005 1402.953,562.645" style="stroke:#495057;stroke-width:1;" fill="none" id="p_conn-to-p_disc"/><polygon points="1406.55,566.119,1402.855,556.989,1402.953,562.645,1397.297,562.744,1406.55,566.119" fill="#495057" style="stroke:#495057;stroke-width:1;stroke-linejoin:miter;stroke-miterlimit:10;"/><text x="1397" y="539.357" fill="#000" font-size="12" textLength="113.355" font-family="'Segoe UI, Helvetica, Arial, sans-serif'">peer_disconnected</text></g><!--link p_disc to p_idle--><g class="link" data-entity-1="ent0018" data-entity-2="ent0014" id="lnk40" data-source-line="50" data-link-type="dependency"><path d="M1496.29,570.309 C1504.58,564.319 1512,557.019 1517,548.219 C1576,444.239 1589.59,374.209 1517,279.219 C1499.83,256.749 1423.352,243.339 1380.102,237.309" style="stroke:#495057;stroke-width:1;" fill="none" id="p_disc-to-p_idle"/><polygon points="1375.15,236.619,1383.511,241.823,1380.102,237.309,1384.616,233.9,1375.15,236.619" fill="#495057" style="stroke:#495057;stroke-width:1;stroke-linejoin:miter;stroke-miterlimit:10;"/><text x="1573" y="418.357" fill="#000" font-size="12" textLength="107.754" font-family="'Segoe UI, Helvetica, Arial, sans-serif'">ready for new call</text></g></g><?plantuml-src ZLJHQXin47o_hzZcwLnmFg2qWU9Sm92wWQJjGnsEGrexmcVfaEI4K0hzY7vXlwJIQdsdwpabVZ3opcYqColvZTAYFKW4vvzRFEyE-xOelF8jmgrlFCAdHZmeZQue7Fq---BGGXc-7j7EdP8uEuF6mI5KwcwtXHy5X0-JbvVNLO9h9LlCeSNdrQfQt5MNQzrXaFm0xqb3oGlU8OpM1Mtv_lOUvlEBN2KjkHgPy0wY3grHU6NqMZT2OETHyWwY3JfXXrIE-NNSlDR6WZDYXpw3Yf-z-KMhK7iezqe6WQV6idj1zQd_LVKjuRN6fr4mg-KT8qehdqFNowyLGwrwF9qPuzE4XeDenRLuH72RklzuipoFXNB6F48JCHuOY6oyd84ta4RDN28aBeT-pCyRYh2SKOWFZGu1rVzCf3-odqH_P3Q9ZJNxbxG66igWDapcoXhjKKluy-itt5BBT8CFZhBQO9ryZETpR4rlYULIebC2IiRDBaVHMcCP2UlnA7AnmN2K27PJCtKlFwK5lO571xtazWOdNkb5ZPp62qzeDtc9vk2tvXX1LuUVeurQcFs0gl_4qqtYoyV5b5WQ1vLrr0slcXgPtgyfJPru-c1HOBXOakbHAh5F_5NqBALVGUf7bAmSQRbJPX8y60nCYuryXasuq_5jYgPjmqp_0W00?></g></svg>